<svg width="100" height="94" viewBox="0 0 100 94" fill="none" xmlns="http://www.w3.org/2000/svg">
<rect width="100" height="94" rx="47" fill="#CDFF00"/>
<path d="M22.8 37.5138H20V42.9178H22.8V37.5138Z" fill="black"/>
<path d="M79.9999 37.5138H77.2V42.9178H79.9999V37.5138Z" fill="black"/>
<path d="M50.4666 22.6043H51.2666V20H48.6V22.6043H49.4H50.4666Z" fill="black"/>
<path d="M70.6002 26.2504H50.4669V22.6044H49.4002V26.2504H29.5336C27.0669 26.2504 25.0669 28.2036 25.0669 30.6777V73.8443C25.0669 73.9745 25.2002 74.0396 25.3336 73.9745L29.0002 68.3101C33.6002 61.5389 41.3336 58.9997 48.3336 59.195H70.4669C72.9336 59.195 74.9336 57.1767 74.9336 54.7026V30.4173C74.9336 28.0734 73.0002 26.1853 70.6002 26.1853V26.2504ZM43.3336 46.8245H39.3336V37.5141H43.3336V46.8245ZM60.7336 46.8245H56.7336V37.5141H60.7336V46.8245Z" fill="black"/>
</svg>
