<svg width="317" height="234" viewBox="0 0 317 234" fill="none" xmlns="http://www.w3.org/2000/svg">
<path d="M34.62 150.064L33.596 127.024H41.532C45.372 142.768 53.436 151.728 64.7 151.728C73.916 151.728 80.828 146.352 80.828 137.52C80.828 116.144 36.028 123.952 36.028 94.384C36.028 78.512 49.98 67.12 67.644 67.12C77.244 67.12 85.692 70.192 92.092 74.8V94.64H84.412C82.748 83.888 77.116 74.672 66.108 74.672C56.892 74.672 51.9 80.56 51.9 87.6C51.9 107.568 97.212 101.68 97.212 130.224C97.212 147.248 82.108 159.28 63.676 159.28C52.668 159.28 40.764 155.312 34.62 150.064ZM159.886 148.4C161.55 148.4 163.214 147.888 164.622 146.992L166.286 151.728C163.342 155.568 157.198 159.28 151.822 159.28C145.806 159.28 140.942 155.696 139.022 149.936C135.31 153.776 128.526 158.896 120.718 158.896C111.63 158.896 104.334 153.136 104.334 144.304C104.334 134.192 112.27 128.944 124.174 125.104L138.638 120.24V112.432C138.638 105.392 135.182 100.912 128.526 100.912C124.558 100.912 122.51 103.6 122.51 107.184C122.51 109.744 123.534 112.304 125.198 115.248L111.374 118.704C108.686 117.936 106.254 115.76 106.254 112.432C106.254 103.088 120.974 93.616 136.206 93.616C148.878 93.616 155.15 99.248 155.15 110.384V143.792C155.15 147.12 157.454 148.4 159.886 148.4ZM121.102 139.824C121.102 144.944 125.198 148.272 130.702 148.272C133.262 148.272 136.718 147.76 138.638 146.224V127.024C128.014 130.352 121.102 132.528 121.102 139.824ZM196.601 136.496C193.529 136.496 190.585 136.112 187.769 135.472C185.081 137.776 183.801 140.208 183.801 142C183.801 144.688 186.105 145.584 190.585 145.584H213.753C225.273 145.584 232.697 151.344 232.697 160.944C232.697 176.816 214.265 188.72 192.505 188.72C177.017 188.72 164.857 183.344 164.857 173.616C164.857 166.832 171.513 162.352 180.345 159.92C174.969 158.256 171.257 154.16 171.257 149.168C171.257 143.28 176.889 138.16 183.801 134.32C175.481 131.12 169.849 124.592 169.849 116.144C169.849 102.704 182.649 93.616 196.729 93.616C202.489 93.616 207.737 94.896 211.961 97.072H233.465V105.904H221.305C222.457 108.208 223.097 110.64 223.097 113.328C223.097 127.152 210.937 136.496 196.601 136.496ZM198.009 130.608C204.025 130.608 206.969 124.592 206.969 116.144C206.969 107.568 203.129 99.248 195.961 99.248C190.073 99.248 187.129 105.264 187.129 113.584C187.129 122.416 191.097 130.608 198.009 130.608ZM179.577 169.648C179.577 177.456 187.257 181.168 196.729 181.168C209.273 181.168 217.849 175.28 217.849 168.368C217.849 162.736 213.369 160.688 206.457 160.688H185.465C184.953 160.688 184.441 160.688 184.057 160.688C180.985 163.12 179.577 166.448 179.577 169.648ZM291.874 142C287.01 151.984 278.05 159.28 265.634 159.28C249.506 159.28 236.45 146.352 236.45 127.536C236.45 108.592 250.146 93.616 266.274 93.616C283.81 93.616 291.746 109.744 291.746 122.288H251.682C252.194 136.496 260.898 145.968 272.674 145.968C278.818 145.968 284.578 144.176 288.802 139.184L291.874 142ZM263.586 100.4C257.314 100.4 253.09 106.032 251.938 115.76H274.21C274.082 107.952 271.01 100.4 263.586 100.4Z" fill="#1D190F"/>
<path d="M26.7 26.9H22.5V35.2H26.7V26.9Z" fill="black"/>
<path d="M112.5 26.9H108.3V35.2H112.5V26.9Z" fill="black"/>
<path d="M68.2 4H69.4V0H65.4V4H66.6H68.2Z" fill="black"/>
<path d="M98.4 9.6H68.2V4H66.6V9.6H36.8C33.1 9.6 30.1 12.6 30.1 16.4V82.7C30.1 82.9 30.3 83 30.5 82.9L36 74.2C42.9 63.8 54.5 59.9 65 60.2H98.2C101.9 60.2 104.9 57.1 104.9 53.3V16C104.9 12.4 102 9.5 98.4 9.5V9.6ZM57.5 41.2H51.5V26.9H57.5V41.2ZM83.6 41.2H77.6V26.9H83.6V41.2Z" fill="black"/>
<path d="M31.352 226V219.906L25.786 210.556H28.008L32.122 217.596C32.188 217.706 32.232 217.75 32.32 217.75C32.408 217.75 32.452 217.706 32.518 217.596L36.808 210.556H39.008L33.244 219.906V226H31.352ZM44.0135 226.198C40.9115 226.198 39.0195 224.108 39.0195 220.412C39.0195 216.716 40.9115 214.626 44.0135 214.626C47.1155 214.626 49.0075 216.738 49.0075 220.412C49.0075 224.108 47.1155 226.198 44.0135 226.198ZM44.0135 224.636C46.2135 224.636 47.0715 222.876 47.0715 220.412C47.0715 217.948 46.2135 216.188 44.0135 216.188C41.8135 216.188 40.9555 217.948 40.9555 220.412C40.9555 222.876 41.8135 224.636 44.0135 224.636ZM55.4441 226.198C53.0681 226.198 51.9021 224.658 51.9021 222.062V214.824H53.7281V221.71C53.7281 223.69 54.4981 224.592 56.1041 224.592C57.7761 224.592 58.9421 223.184 58.9421 221.094V214.824H60.7681V226H59.0521V224.57C59.0521 224.438 58.9861 224.35 58.8761 224.35C58.7661 224.35 58.7001 224.438 58.6341 224.526C57.9301 225.472 56.9841 226.198 55.4441 226.198ZM64.6469 226V214.824H66.3629V216.408C66.3629 216.54 66.4289 216.628 66.5389 216.628C66.6489 216.628 66.6929 216.562 66.7809 216.43C67.4629 215.374 68.5409 214.626 69.6629 214.626C70.0369 214.626 70.3449 214.67 70.6309 214.736L70.5869 216.584C70.2569 216.518 69.7289 216.496 69.4649 216.496C67.7269 216.496 66.4729 217.64 66.4729 219.752V226H64.6469ZM77.3803 226L80.3723 210.556H89.9863L89.5903 212.712H82.4623L81.5603 217.244H87.7203L87.3023 219.334H81.1643L79.8663 226H77.3803ZM89.4975 226L92.4895 210.556H94.9755L91.9835 226H89.4975ZM95.6635 226L98.6555 210.556H101.45L106.092 222.084C106.158 222.238 106.202 222.282 106.334 222.282C106.444 222.282 106.532 222.216 106.553 222.062L108.776 210.556H111.108L108.116 226H105.344L100.702 214.494C100.636 214.34 100.591 214.296 100.46 214.296C100.35 214.296 100.284 214.384 100.262 214.516L98.0175 226H95.6635ZM110.478 226L118.948 210.556H122.05L124.558 226H122.094L121.456 222.018H115.142L113.03 226H110.478ZM116.242 219.972H121.192L120.18 213.24C120.158 213.13 120.092 213.064 120.004 213.064C119.916 213.064 119.85 213.13 119.784 213.24L116.242 219.972ZM126.859 226L129.851 210.556H132.645L137.287 222.084C137.353 222.238 137.397 222.282 137.529 222.282C137.639 222.282 137.727 222.216 137.749 222.062L139.971 210.556H142.303L139.311 226H136.539L131.897 214.494C131.831 214.34 131.787 214.296 131.655 214.296C131.545 214.296 131.479 214.384 131.457 214.516L129.213 226H126.859ZM149.462 226.264C145.898 226.264 143.478 223.976 143.478 220.17C143.478 215.22 146.14 210.292 151.838 210.292C155.138 210.292 157.294 212.36 157.294 215.154C157.294 215.396 157.294 215.594 157.272 215.858H154.786C154.808 215.682 154.808 215.594 154.808 215.44C154.808 213.724 153.818 212.36 151.596 212.36C148.252 212.36 146.074 215.946 146.074 220.126C146.074 222.744 147.416 224.196 149.726 224.196C151.596 224.196 153.466 222.986 153.928 220.676H156.436C155.688 224.372 152.938 226.264 149.462 226.264ZM158.312 226L161.304 210.556H163.79L160.798 226H158.312ZM163.158 226L171.628 210.556H174.73L177.238 226H174.774L174.136 222.018H167.822L165.71 226H163.158ZM168.922 219.972H173.872L172.86 213.24C172.838 213.13 172.772 213.064 172.684 213.064C172.596 213.064 172.53 213.13 172.464 213.24L168.922 219.972ZM179.538 226L182.531 210.556H185.017L182.443 223.844H189.505L189.109 226H179.538ZM197.153 226L202.983 210.556H205.183L211.035 226H209.055L207.383 221.534H200.673L199.045 226H197.153ZM201.289 219.862H206.767L204.215 212.954C204.171 212.844 204.105 212.8 204.017 212.8C203.929 212.8 203.863 212.844 203.819 212.954L201.289 219.862ZM217.273 226.198C214.413 226.198 212.939 224.834 212.939 222.832H214.787C214.809 223.844 215.623 224.724 217.317 224.724C218.945 224.724 219.759 223.932 219.759 222.832C219.759 221.952 219.165 221.512 218.043 221.292L216.107 220.918C214.193 220.544 213.137 219.554 213.137 217.97C213.137 215.924 214.875 214.626 217.185 214.626C219.451 214.626 221.321 215.594 221.321 217.816H219.539C219.539 216.738 218.527 216.1 217.207 216.1C215.865 216.1 214.919 216.782 214.919 217.838C214.919 218.542 215.403 219.07 216.657 219.312L218.593 219.686C220.507 220.06 221.541 220.874 221.541 222.678C221.541 224.768 219.979 226.198 217.273 226.198ZM228.466 226.198C225.606 226.198 224.132 224.834 224.132 222.832H225.98C226.002 223.844 226.816 224.724 228.51 224.724C230.138 224.724 230.952 223.932 230.952 222.832C230.952 221.952 230.358 221.512 229.236 221.292L227.3 220.918C225.386 220.544 224.33 219.554 224.33 217.97C224.33 215.924 226.068 214.626 228.378 214.626C230.644 214.626 232.514 215.594 232.514 217.816H230.732C230.732 216.738 229.72 216.1 228.4 216.1C227.058 216.1 226.112 216.782 226.112 217.838C226.112 218.542 226.596 219.07 227.85 219.312L229.786 219.686C231.7 220.06 232.734 220.874 232.734 222.678C232.734 224.768 231.172 226.198 228.466 226.198ZM235.963 226V214.824H237.789V226H235.963ZM236.865 212.712C236.139 212.712 235.589 212.162 235.589 211.458C235.589 210.754 236.139 210.182 236.865 210.182C237.591 210.182 238.141 210.754 238.141 211.458C238.141 212.162 237.591 212.712 236.865 212.712ZM245.331 226.198C242.471 226.198 240.997 224.834 240.997 222.832H242.845C242.867 223.844 243.681 224.724 245.375 224.724C247.003 224.724 247.817 223.932 247.817 222.832C247.817 221.952 247.223 221.512 246.101 221.292L244.165 220.918C242.251 220.544 241.195 219.554 241.195 217.97C241.195 215.924 242.933 214.626 245.243 214.626C247.509 214.626 249.379 215.594 249.379 217.816H247.597C247.597 216.738 246.585 216.1 245.265 216.1C243.923 216.1 242.977 216.782 242.977 217.838C242.977 218.542 243.461 219.07 244.715 219.312L246.651 219.686C248.565 220.06 249.599 220.874 249.599 222.678C249.599 224.768 248.037 226.198 245.331 226.198ZM256.195 226.198C254.017 226.198 253.027 224.922 253.027 222.964V216.408H251.619V214.934H251.795C252.829 214.934 253.247 214.648 253.247 213.57V211.876H254.853V214.824H257.955V216.408H254.853V222.612C254.853 223.844 255.271 224.548 256.393 224.548C256.855 224.548 257.251 224.482 257.757 224.218L258.109 225.736C257.559 226 256.811 226.198 256.195 226.198ZM263.595 226.198C261.593 226.198 260.075 225.142 260.075 223.074C260.075 220.874 261.659 219.906 264.013 219.466L265.509 219.202C266.829 218.96 267.269 218.74 267.269 218.08C267.269 216.826 266.279 216.144 264.761 216.144C263.463 216.144 262.319 216.65 262.297 218.036H260.427C260.537 215.704 262.341 214.626 264.761 214.626C267.269 214.626 269.095 215.726 269.095 218.388V226H267.379V224.746C267.379 224.592 267.291 224.526 267.203 224.526C267.115 224.526 267.049 224.57 266.917 224.724C266.147 225.604 264.959 226.198 263.595 226.198ZM263.859 224.68C265.707 224.68 267.357 223.514 267.357 221.468V220.104C267.071 220.412 266.455 220.522 265.575 220.676L264.541 220.874C262.605 221.248 261.923 221.908 261.923 223.03C261.923 223.998 262.583 224.68 263.859 224.68ZM272.723 226V214.824H274.439V216.254C274.439 216.386 274.505 216.474 274.615 216.474C274.725 216.474 274.791 216.386 274.857 216.298C275.561 215.352 276.507 214.626 278.047 214.626C280.467 214.626 281.677 216.166 281.677 218.762V226H279.851V219.114C279.851 217.134 279.037 216.232 277.387 216.232C275.715 216.232 274.549 217.64 274.549 219.73V226H272.723ZM288.722 226.198C286.544 226.198 285.554 224.922 285.554 222.964V216.408H284.146V214.934H284.322C285.356 214.934 285.774 214.648 285.774 213.57V211.876H287.38V214.824H290.482V216.408H287.38V222.612C287.38 223.844 287.798 224.548 288.92 224.548C289.382 224.548 289.778 224.482 290.284 224.218L290.636 225.736C290.086 226 289.338 226.198 288.722 226.198Z" fill="black"/>
</svg>
