<svg width="91" height="78" viewBox="0 0 91 78" fill="none" xmlns="http://www.w3.org/2000/svg">
<path d="M9.6 59.52L9.28 52.32H11.76C12.96 57.24 15.48 60.04 19 60.04C21.88 60.04 24.04 58.36 24.04 55.6C24.04 48.92 10.04 51.36 10.04 42.12C10.04 37.16 14.4 33.6 19.92 33.6C22.92 33.6 25.56 34.56 27.56 36V42.2H25.16C24.64 38.84 22.88 35.96 19.44 35.96C16.56 35.96 15 37.8 15 40C15 46.24 29.16 44.4 29.16 53.32C29.16 58.64 24.44 62.4 18.68 62.4C15.24 62.4 11.52 61.16 9.6 59.52ZM48.7456 59C49.2656 59 49.7856 58.84 50.2256 58.56L50.7456 60.04C49.8256 61.24 47.9056 62.4 46.2256 62.4C44.3456 62.4 42.8256 61.28 42.2256 59.48C41.0656 60.68 38.9456 62.28 36.5056 62.28C33.6656 62.28 31.3856 60.48 31.3856 57.72C31.3856 54.56 33.8656 52.92 37.5856 51.72L42.1056 50.2V47.76C42.1056 45.56 41.0256 44.16 38.9456 44.16C37.7056 44.16 37.0656 45 37.0656 46.12C37.0656 46.92 37.3856 47.72 37.9056 48.64L33.5856 49.72C32.7456 49.48 31.9856 48.8 31.9856 47.76C31.9856 44.84 36.5856 41.88 41.3456 41.88C45.3056 41.88 47.2656 43.64 47.2656 47.12V57.56C47.2656 58.6 47.9856 59 48.7456 59ZM36.6256 56.32C36.6256 57.92 37.9056 58.96 39.6256 58.96C40.4256 58.96 41.5056 58.8 42.1056 58.32V52.32C38.7856 53.36 36.6256 54.04 36.6256 56.32ZM60.2191 55.28C59.2591 55.28 58.3391 55.16 57.4591 54.96C56.6191 55.68 56.2191 56.44 56.2191 57C56.2191 57.84 56.9391 58.12 58.3391 58.12H65.5791C69.1791 58.12 71.4991 59.92 71.4991 62.92C71.4991 67.88 65.7391 71.6 58.9391 71.6C54.0991 71.6 50.2991 69.92 50.2991 66.88C50.2991 64.76 52.3791 63.36 55.1391 62.6C53.4591 62.08 52.2991 60.8 52.2991 59.24C52.2991 57.4 54.0591 55.8 56.2191 54.6C53.6191 53.6 51.8591 51.56 51.8591 48.92C51.8591 44.72 55.8591 41.88 60.2591 41.88C62.0591 41.88 63.6991 42.28 65.0191 42.96H71.7391V45.72H67.9391C68.2991 46.44 68.4991 47.2 68.4991 48.04C68.4991 52.36 64.6991 55.28 60.2191 55.28ZM60.6591 53.44C62.5391 53.44 63.4591 51.56 63.4591 48.92C63.4591 46.24 62.2591 43.64 60.0191 43.64C58.1791 43.64 57.2591 45.52 57.2591 48.12C57.2591 50.88 58.4991 53.44 60.6591 53.44ZM54.8991 65.64C54.8991 68.08 57.2991 69.24 60.2591 69.24C64.1791 69.24 66.8591 67.4 66.8591 65.24C66.8591 63.48 65.4591 62.84 63.2991 62.84H56.7391C56.5791 62.84 56.4191 62.84 56.2991 62.84C55.3391 63.6 54.8991 64.64 54.8991 65.64ZM89.9919 57C88.4719 60.12 85.6719 62.4 81.7919 62.4C76.7519 62.4 72.6719 58.36 72.6719 52.48C72.6719 46.56 76.9519 41.88 81.9919 41.88C87.4719 41.88 89.9519 46.92 89.9519 50.84H77.4319C77.5919 55.28 80.3119 58.24 83.9919 58.24C85.9119 58.24 87.7119 57.68 89.0319 56.12L89.9919 57ZM81.1519 44C79.1919 44 77.8719 45.76 77.5119 48.8H84.4719C84.4319 46.36 83.4719 44 81.1519 44Z" fill="#1D190F"/>
<path d="M2.1 13.45H0V17.6H2.1V13.45Z" fill="#1D190F"/>
<path d="M45 13.45H42.9V17.6H45V13.45Z" fill="#1D190F"/>
<path d="M22.85 2H23.45V0H21.45V2H22.0499H22.85Z" fill="#1D190F"/>
<path d="M37.9501 4.8H22.85V2H22.05V4.8H7.15005C5.30005 4.8 3.80005 6.3 3.80005 8.2V41.35C3.80005 41.45 3.90005 41.5 4.00005 41.45L6.75005 37.1C10.2 31.9 16 29.95 21.25 30.1H37.85C39.7 30.1 41.2001 28.55 41.2001 26.65V8C41.2001 6.2 39.7501 4.75 37.9501 4.75V4.8ZM17.5 20.6H14.5V13.45H17.5V20.6ZM30.55 20.6H27.55V13.45H30.55V20.6Z" fill="#1D190F"/>
</svg>
