<svg width="32" height="30" viewBox="0 0 32 30" fill="none" xmlns="http://www.w3.org/2000/svg">
<rect width="32" height="30" rx="15" fill="#CDFF00"/>
<path d="M5.12 11.1353H4V13.3369H5.12V11.1353Z" fill="black"/>
<path d="M28 11.1353H26.88V13.3369H28V11.1353Z" fill="black"/>
<path d="M16.1865 5.06102H16.5065V4H15.4398V5.06102H15.7598H16.1865Z" fill="black"/>
<path d="M24.2401 6.54644H16.1867V5.06102H15.7601V6.54644H7.8134C6.82673 6.54644 6.02673 7.34221 6.02673 8.35017V25.9365C6.02673 25.9896 6.08007 26.0161 6.1334 25.9896L7.60007 23.6819C9.44007 20.9232 12.5334 19.8887 15.3334 19.9683H24.1867C25.1734 19.9683 25.9734 19.146 25.9734 18.1381V8.24407C25.9734 7.28916 25.2001 6.51992 24.2401 6.51992V6.54644ZM13.3334 14.9285H11.7334V11.1353H13.3334V14.9285ZM20.2934 14.9285H18.6934V11.1353H20.2934V14.9285Z" fill="black"/>
</svg>
