<svg width="32" height="32" viewBox="0 0 32 32" fill="none" xmlns="http://www.w3.org/2000/svg">
<g opacity="0.9">
<rect width="32" height="32" rx="16" fill="#FCFCFC"/>
<path d="M12.346 12.4105C12.346 11.5058 12.7311 10.6383 13.4162 9.99885C14.102 9.35943 15.0309 9 16.0001 9C16.9693 9 17.8981 9.35941 18.584 9.99885C19.269 10.6383 19.6541 11.5059 19.6541 12.4105C19.6541 13.3144 19.2691 14.1819 18.584 14.8214C17.8981 15.4615 16.9693 15.8202 16.0001 15.8202C15.0309 15.8202 14.102 15.4615 13.4162 14.8214C12.7311 14.182 12.346 13.3144 12.346 12.4105ZM16.5309 16.1797H15.4693C14.0191 16.181 12.6294 16.7195 11.6038 17.6766C10.5791 18.6337 10.0022 19.9307 10 21.2843C10.0007 21.8221 10.3945 22.2899 10.9541 22.4185C12.6041 22.8055 14.2988 23.0007 16 23C17.7012 23.0007 19.396 22.8055 21.0459 22.4185C21.6055 22.2899 21.9993 21.8221 22 21.2843C21.9978 19.9308 21.4209 18.6337 20.3962 17.6766C19.3707 16.7195 17.9812 16.181 16.5309 16.1797Z" fill="black"/>
</g>
</svg>
